<mxfile host="app.diagrams.net" modified="2022-01-05T22:31:46.887Z" agent="5.0 (Macintosh; Intel Mac OS X 10_15_7) AppleWebKit/605.1.15 (KHTML, like Gecko) Version/15.2 Safari/605.1.15" etag="2h6c4iikAg0MeRJl3GBx" version="16.2.2" type="github">
  <diagram id="X1CSldS0zlQ0xVxikNMg" name="Page-1">
    <mxGraphModel dx="1584" dy="936" grid="1" gridSize="10" guides="1" tooltips="1" connect="1" arrows="1" fold="1" page="1" pageScale="1" pageWidth="827" pageHeight="1169" math="0" shadow="0">
      <root>
        <mxCell id="0" />
        <mxCell id="1" parent="0" />
        <mxCell id="psz9Qkptae42nwodlkqU-10" value="" style="edgeStyle=orthogonalEdgeStyle;rounded=0;orthogonalLoop=1;jettySize=auto;html=1;fontFamily=Helvetica;fontSize=12;fontColor=default;" edge="1" parent="1" source="psz9Qkptae42nwodlkqU-1" target="psz9Qkptae42nwodlkqU-2">
          <mxGeometry relative="1" as="geometry" />
        </mxCell>
        <mxCell id="psz9Qkptae42nwodlkqU-1" value="App" style="rounded=0;whiteSpace=wrap;html=1;" vertex="1" parent="1">
          <mxGeometry x="350" y="400" width="120" height="60" as="geometry" />
        </mxCell>
        <mxCell id="psz9Qkptae42nwodlkqU-11" value="" style="edgeStyle=orthogonalEdgeStyle;rounded=0;orthogonalLoop=1;jettySize=auto;html=1;fontFamily=Helvetica;fontSize=12;fontColor=default;" edge="1" parent="1" source="psz9Qkptae42nwodlkqU-2" target="psz9Qkptae42nwodlkqU-3">
          <mxGeometry relative="1" as="geometry" />
        </mxCell>
        <mxCell id="psz9Qkptae42nwodlkqU-2" value="AppNavContainer" style="rounded=0;whiteSpace=wrap;html=1;" vertex="1" parent="1">
          <mxGeometry x="350" y="500" width="120" height="60" as="geometry" />
        </mxCell>
        <mxCell id="psz9Qkptae42nwodlkqU-12" value="" style="edgeStyle=orthogonalEdgeStyle;rounded=0;orthogonalLoop=1;jettySize=auto;html=1;fontFamily=Helvetica;fontSize=12;fontColor=default;" edge="1" parent="1" source="psz9Qkptae42nwodlkqU-3" target="psz9Qkptae42nwodlkqU-4">
          <mxGeometry relative="1" as="geometry" />
        </mxCell>
        <mxCell id="psz9Qkptae42nwodlkqU-3" value="DrawerNavigator" style="rounded=0;whiteSpace=wrap;html=1;" vertex="1" parent="1">
          <mxGeometry x="350" y="600" width="120" height="60" as="geometry" />
        </mxCell>
        <mxCell id="psz9Qkptae42nwodlkqU-13" value="" style="edgeStyle=orthogonalEdgeStyle;rounded=0;orthogonalLoop=1;jettySize=auto;html=1;fontFamily=Helvetica;fontSize=12;fontColor=default;" edge="1" parent="1" source="psz9Qkptae42nwodlkqU-4" target="psz9Qkptae42nwodlkqU-5">
          <mxGeometry relative="1" as="geometry" />
        </mxCell>
        <mxCell id="psz9Qkptae42nwodlkqU-4" value="Drawer.Screen" style="rounded=0;whiteSpace=wrap;html=1;" vertex="1" parent="1">
          <mxGeometry x="350" y="700" width="120" height="60" as="geometry" />
        </mxCell>
        <mxCell id="psz9Qkptae42nwodlkqU-19" style="edgeStyle=orthogonalEdgeStyle;rounded=0;orthogonalLoop=1;jettySize=auto;html=1;entryX=0.5;entryY=0;entryDx=0;entryDy=0;fontFamily=Helvetica;fontSize=12;fontColor=default;" edge="1" parent="1" source="psz9Qkptae42nwodlkqU-5" target="psz9Qkptae42nwodlkqU-6">
          <mxGeometry relative="1" as="geometry">
            <Array as="points">
              <mxPoint x="410" y="880" />
              <mxPoint x="180" y="880" />
            </Array>
          </mxGeometry>
        </mxCell>
        <mxCell id="psz9Qkptae42nwodlkqU-20" style="edgeStyle=orthogonalEdgeStyle;rounded=0;orthogonalLoop=1;jettySize=auto;html=1;entryX=0.5;entryY=0;entryDx=0;entryDy=0;fontFamily=Helvetica;fontSize=12;fontColor=default;" edge="1" parent="1" source="psz9Qkptae42nwodlkqU-5" target="psz9Qkptae42nwodlkqU-7">
          <mxGeometry relative="1" as="geometry">
            <Array as="points">
              <mxPoint x="410" y="880" />
              <mxPoint x="330" y="880" />
            </Array>
          </mxGeometry>
        </mxCell>
        <mxCell id="psz9Qkptae42nwodlkqU-21" style="edgeStyle=orthogonalEdgeStyle;rounded=0;orthogonalLoop=1;jettySize=auto;html=1;entryX=0.5;entryY=0;entryDx=0;entryDy=0;fontFamily=Helvetica;fontSize=12;fontColor=default;" edge="1" parent="1" source="psz9Qkptae42nwodlkqU-5" target="psz9Qkptae42nwodlkqU-8">
          <mxGeometry relative="1" as="geometry">
            <Array as="points">
              <mxPoint x="410" y="880" />
              <mxPoint x="480" y="880" />
            </Array>
          </mxGeometry>
        </mxCell>
        <mxCell id="psz9Qkptae42nwodlkqU-22" style="edgeStyle=orthogonalEdgeStyle;rounded=0;orthogonalLoop=1;jettySize=auto;html=1;entryX=0.5;entryY=0;entryDx=0;entryDy=0;fontFamily=Helvetica;fontSize=12;fontColor=default;" edge="1" parent="1" source="psz9Qkptae42nwodlkqU-5" target="psz9Qkptae42nwodlkqU-9">
          <mxGeometry relative="1" as="geometry">
            <Array as="points">
              <mxPoint x="410" y="880" />
              <mxPoint x="630" y="880" />
            </Array>
          </mxGeometry>
        </mxCell>
        <mxCell id="psz9Qkptae42nwodlkqU-5" value="HomeNavigator" style="rounded=0;whiteSpace=wrap;html=1;" vertex="1" parent="1">
          <mxGeometry x="350" y="800" width="120" height="60" as="geometry" />
        </mxCell>
        <mxCell id="psz9Qkptae42nwodlkqU-6" value="Contacts" style="rounded=0;whiteSpace=wrap;html=1;" vertex="1" parent="1">
          <mxGeometry x="120" y="908" width="120" height="60" as="geometry" />
        </mxCell>
        <mxCell id="psz9Qkptae42nwodlkqU-7" value="ContactsDetail" style="rounded=0;whiteSpace=wrap;html=1;" vertex="1" parent="1">
          <mxGeometry x="270" y="908" width="120" height="60" as="geometry" />
        </mxCell>
        <mxCell id="psz9Qkptae42nwodlkqU-8" value="CreateContact" style="rounded=0;whiteSpace=wrap;html=1;" vertex="1" parent="1">
          <mxGeometry x="420" y="908" width="120" height="60" as="geometry" />
        </mxCell>
        <mxCell id="psz9Qkptae42nwodlkqU-9" value="Settings" style="rounded=0;whiteSpace=wrap;html=1;" vertex="1" parent="1">
          <mxGeometry x="570" y="908" width="120" height="60" as="geometry" />
        </mxCell>
      </root>
    </mxGraphModel>
  </diagram>
</mxfile>
